<?xml version="1.0" standalone="no"?>
<!DOCTYPE svg PUBLIC "-//W3C//DTD SVG 20010904//EN"
 "http://www.w3.org/TR/2001/REC-SVG-20010904/DTD/svg10.dtd">
<svg version="1.0" xmlns="http://www.w3.org/2000/svg"
 width="2400.000000pt" height="2400.000000pt" viewBox="0 0 2400.000000 2400.000000"
 preserveAspectRatio="xMidYMid meet">
<metadata>
Created by potrace 1.11, written by Peter Selinger 2001-2013
</metadata>
<g transform="translate(0.000000,2400.000000) scale(0.100000,-0.100000)"
fill="#000000" stroke="none">
<path d="M9186 23123 c-1 -2 -34 -5 -72 -8 -38 -3 -80 -8 -94 -10 -14 -2 -45
-6 -70 -10 -259 -39 -561 -154 -795 -303 -162 -103 -353 -271 -462 -407 -246
-305 -365 -683 -328 -1035 12 -113 61 -299 102 -390 35 -80 104 -211 114 -220
3 -3 9 -13 12 -24 7 -17 4 -18 -25 -12 -122 26 -320 60 -413 71 -16 2 -52 7
-80 11 -258 33 -796 39 -955 10 -14 -3 -47 -7 -75 -10 -166 -17 -427 -86 -590
-157 -519 -224 -801 -623 -860 -1219 -6 -66 -7 -360 -1 -410 3 -19 7 -62 11
-95 6 -61 24 -194 31 -230 2 -11 7 -33 9 -50 29 -166 105 -463 135 -530 5 -11
12 -31 15 -45 4 -14 14 -41 22 -60 8 -19 19 -44 23 -55 52 -124 190 -377 235
-434 8 -9 41 -53 74 -97 290 -389 774 -736 1401 -1004 41 -18 89 -38 105 -45
47 -21 254 -101 320 -125 33 -12 67 -24 75 -27 8 -3 20 -8 25 -9 462 -157 692
-231 1085 -350 687 -208 1410 -452 1625 -549 17 -7 62 -25 100 -40 39 -16 98
-41 133 -56 34 -16 64 -29 66 -29 6 0 167 -76 311 -146 145 -70 333 -171 432
-230 17 -10 57 -34 90 -53 32 -19 104 -65 161 -102 57 -38 107 -69 112 -69 5
0 10 -3 12 -7 2 -5 44 -37 93 -72 117 -84 118 -84 54 -60 -30 11 -72 27 -94
34 -45 14 -120 42 -150 56 -35 15 -438 151 -670 226 -143 45 -388 120 -505
153 -97 28 -393 110 -410 115 -8 2 -105 26 -215 54 -110 29 -210 54 -222 56
-13 3 -34 7 -48 10 -14 3 -65 15 -113 26 -48 12 -98 23 -112 25 -14 3 -33 7
-42 10 -17 5 -44 11 -93 20 -16 3 -59 11 -95 19 -74 16 -245 49 -340 65 -36 6
-76 13 -90 16 -66 11 -289 46 -318 49 -18 2 -45 6 -60 9 -15 3 -46 8 -69 11
-24 3 -60 7 -80 10 -60 7 -214 25 -263 30 -190 18 -191 18 -380 31 -246 17
-941 10 -1110 -11 -14 -1 -56 -6 -93 -9 -37 -4 -76 -9 -86 -11 -10 -2 -42 -6
-72 -10 -30 -3 -76 -10 -104 -15 -27 -5 -66 -12 -85 -15 -19 -4 -87 -17 -150
-31 -141 -31 -135 -29 -190 -44 -25 -7 -47 -12 -50 -12 -3 0 -12 -4 -21 -9 -9
-4 -27 -10 -40 -13 -41 -7 -260 -87 -354 -128 -89 -39 -266 -130 -295 -152 -8
-6 -31 -20 -50 -31 -114 -62 -300 -213 -420 -339 -36 -38 -73 -78 -83 -88 -9
-10 -48 -60 -85 -111 -243 -329 -372 -726 -374 -1153 0 -97 10 -283 17 -294 2
-3 6 -30 10 -60 13 -103 69 -311 118 -440 38 -99 149 -325 180 -365 4 -5 21
-30 37 -55 81 -124 207 -263 346 -380 72 -61 258 -168 349 -201 70 -25 125
-41 155 -45 8 -1 31 -6 50 -11 78 -21 269 -15 415 12 39 8 202 63 238 81 26
14 36 8 18 -12 -14 -15 -106 -249 -155 -397 -83 -250 -135 -480 -170 -763 -14
-108 -14 -465 -1 -564 73 -540 310 -930 742 -1222 283 -190 667 -328 1128
-403 209 -35 481 -39 640 -10 543 99 958 409 1378 1028 35 52 67 101 71 108 3
8 19 34 36 59 146 226 383 696 606 1203 64 144 121 276 129 292 7 17 43 100
80 185 36 85 79 184 95 220 16 36 64 148 108 250 151 350 404 900 443 965 4 6
45 85 93 177 144 281 406 723 468 792 10 11 20 28 24 38 3 10 10 18 15 18 5 0
9 6 9 13 0 6 9 23 20 37 11 14 59 77 106 140 99 132 153 198 206 255 38 40 38
40 28 10 -8 -25 -84 -310 -94 -355 -2 -8 -9 -33 -14 -55 -6 -22 -13 -51 -16
-65 -8 -39 -13 -59 -36 -150 -12 -47 -24 -96 -26 -110 -3 -14 -9 -41 -14 -60
-5 -19 -11 -47 -14 -63 -3 -15 -7 -35 -10 -45 -3 -9 -7 -28 -10 -42 -3 -14 -7
-34 -10 -45 -6 -25 -66 -310 -72 -345 -2 -14 -8 -45 -14 -70 -14 -71 -41 -212
-46 -242 -9 -65 -13 -87 -28 -168 -8 -47 -18 -101 -21 -120 -46 -298 -75 -504
-90 -630 -3 -30 -8 -66 -10 -80 -2 -14 -11 -92 -20 -175 -25 -240 -31 -297
-41 -420 -8 -89 -8 -101 -18 -265 -4 -63 -9 -133 -11 -155 -12 -123 -19 -461
-19 -845 0 -497 9 -766 40 -1125 2 -27 6 -77 9 -110 2 -33 7 -82 10 -110 2
-27 7 -77 10 -110 3 -33 8 -76 10 -95 3 -19 7 -53 9 -75 11 -88 32 -258 40
-310 2 -16 10 -66 16 -110 6 -44 13 -91 16 -105 2 -14 13 -79 24 -145 11 -66
21 -129 24 -140 2 -11 7 -40 11 -65 12 -74 15 -89 30 -154 7 -33 17 -81 20
-106 4 -24 8 -47 10 -51 2 -3 11 -41 20 -85 20 -99 31 -148 95 -404 29 -113
53 -213 55 -223 2 -10 9 -32 15 -50 11 -33 56 -188 70 -242 48 -183 259 -798
350 -1020 7 -16 16 -40 21 -52 5 -13 13 -33 19 -45 5 -13 21 -52 36 -88 14
-36 33 -81 41 -100 8 -19 19 -44 24 -55 112 -265 265 -585 402 -845 48 -92 70
-131 134 -250 50 -91 184 -321 219 -378 19 -29 34 -57 34 -62 0 -6 5 -10 10
-10 6 0 10 -4 10 -10 0 -12 218 -350 330 -512 174 -251 519 -705 603 -793 10
-11 31 -36 45 -55 15 -19 29 -37 33 -40 3 -3 61 -68 129 -145 126 -143 479
-501 605 -614 90 -82 134 -111 174 -116 65 -8 135 42 148 104 15 75 -3 105
-117 205 -191 167 -519 504 -720 741 -23 28 -52 61 -64 75 -11 14 -41 50 -66
80 -25 30 -47 57 -50 60 -3 3 -27 34 -55 70 -27 36 -52 67 -55 70 -28 22 -332
443 -467 645 -140 210 -281 432 -296 465 -4 8 -16 29 -27 45 -10 17 -25 41
-33 55 -8 14 -39 68 -69 120 -30 52 -72 127 -93 165 -21 39 -59 108 -84 155
-26 47 -92 177 -148 290 -93 189 -119 244 -183 385 -12 28 -33 73 -45 100
-137 298 -373 928 -476 1270 -97 318 -217 761 -234 860 -3 17 -10 44 -15 60
-5 17 -11 44 -14 60 -3 17 -14 71 -25 120 -30 140 -52 248 -56 270 -1 11 -14
83 -28 160 -15 77 -29 158 -32 180 -2 22 -7 54 -10 70 -18 104 -25 155 -29
195 -2 25 -7 52 -9 60 -3 8 -8 42 -11 75 -4 33 -8 71 -11 85 -2 14 -6 48 -9
75 -3 28 -7 66 -10 85 -2 19 -7 67 -11 105 -3 39 -8 82 -11 97 -2 14 -6 62 -9
105 -3 43 -8 96 -10 118 -2 22 -7 87 -10 145 -4 58 -9 125 -10 150 -27 375
-27 1348 0 1685 2 22 6 90 10 150 4 61 8 126 10 145 1 19 6 71 9 115 4 44 8
98 11 120 2 22 7 72 11 110 3 39 8 84 10 100 2 17 6 59 9 95 4 36 9 76 11 90
3 14 6 43 9 65 7 69 15 139 20 165 2 14 7 45 10 70 6 48 14 109 20 150 3 14
12 72 20 130 9 58 18 114 20 125 1 11 8 52 15 90 6 39 13 79 15 90 1 11 7 47
13 80 6 33 13 71 16 85 6 39 26 143 31 170 3 14 7 36 10 50 3 14 7 36 10 50 3
14 7 36 10 50 6 40 71 340 110 510 20 85 38 163 40 173 2 10 6 26 9 35 3 9 8
28 10 42 6 29 53 210 91 355 15 55 30 114 34 130 l8 30 6 -25 c4 -14 9 -43 12
-64 3 -21 7 -48 10 -60 2 -12 7 -39 9 -61 5 -39 9 -60 22 -135 4 -19 8 -48 10
-65 2 -16 11 -64 19 -105 16 -81 22 -116 31 -170 3 -19 21 -114 40 -210 19
-96 36 -184 38 -195 22 -131 163 -729 237 -1005 17 -63 37 -137 44 -165 32
-122 112 -389 182 -605 42 -129 77 -237 78 -240 1 -3 4 -12 8 -20 3 -8 19 -53
35 -100 76 -219 205 -546 295 -748 30 -67 53 -122 50 -122 -2 0 5 -12 16 -26
12 -15 21 -32 21 -39 0 -14 211 -434 256 -510 17 -27 33 -57 37 -65 4 -8 21
-37 37 -65 17 -27 38 -65 47 -82 9 -18 20 -33 25 -33 4 0 8 -5 8 -10 0 -6 36
-65 80 -132 44 -66 80 -124 80 -129 0 -4 3 -9 8 -11 4 -1 30 -34 57 -73 182
-257 480 -582 698 -760 275 -224 599 -397 891 -475 77 -20 89 -23 215 -46 152
-27 403 -32 536 -10 17 2 50 7 75 11 264 40 567 159 804 317 83 55 163 114
176 128 3 3 19 16 35 28 34 26 171 158 227 220 43 46 158 197 197 257 206 320
309 684 280 988 -12 121 -19 159 -49 249 -51 151 -144 312 -234 404 -17 18
-41 42 -52 55 -12 13 -47 44 -78 68 -31 24 -55 45 -54 47 2 1 46 5 98 9 82 5
388 46 445 59 11 3 56 12 100 21 273 57 550 153 788 271 104 52 290 163 325
194 10 8 46 37 80 63 178 138 348 347 451 553 160 322 204 636 156 1109 -2 17
-9 59 -15 95 -7 36 -14 74 -16 85 -1 11 -3 22 -4 25 -1 3 -2 8 -1 12 0 4 -3
18 -8 31 -5 13 -12 40 -15 59 -3 19 -10 48 -16 64 -6 16 -10 29 -9 29 3 0 -28
110 -57 200 -74 231 -159 414 -262 567 -73 109 -118 164 -215 261 -73 72 -262
222 -297 235 -8 3 -17 8 -20 12 -10 12 -205 108 -283 139 -149 59 -424 134
-577 156 -25 4 -54 8 -66 10 -25 3 -178 22 -249 30 -233 25 -869 26 -1250 0
-33 -2 -105 -7 -160 -10 -55 -3 -116 -8 -135 -9 -19 -2 -82 -7 -140 -11 -58
-4 -121 -9 -140 -10 -80 -7 -209 -16 -260 -20 -30 -2 -84 -6 -120 -10 -36 -3
-96 -8 -135 -11 -38 -2 -95 -7 -125 -9 -107 -9 -216 -17 -270 -20 -30 -2 -55
-4 -55 -5 0 0 -36 -3 -80 -5 -44 -2 -120 -7 -170 -9 -511 -31 -1078 -35 -1380
-12 -130 11 -221 18 -250 21 -16 2 -57 6 -90 10 -96 9 -241 29 -298 41 -16 3
-38 7 -50 9 -21 2 -110 19 -167 30 -14 3 -36 7 -50 10 -83 16 -84 22 -5 24 44
1 107 4 140 6 33 1 125 6 205 10 80 3 165 8 189 10 25 2 94 6 155 10 61 3 127
8 146 10 19 1 78 6 130 10 132 10 155 12 235 20 39 3 92 8 119 10 26 2 69 6
95 9 25 3 71 8 101 11 30 3 75 8 100 11 43 4 61 7 155 18 92 12 123 15 175 21
30 3 80 10 110 15 30 5 78 12 105 15 28 3 77 10 110 15 33 5 80 12 105 15 40
5 67 9 187 30 16 3 48 7 73 11 25 3 52 7 60 9 8 2 31 7 50 10 19 3 94 17 165
30 72 13 146 27 165 30 19 3 112 22 205 42 94 19 178 37 189 39 185 35 890
224 1064 284 33 11 68 23 78 25 42 9 504 176 569 205 11 4 106 45 210 90 215
93 473 221 650 323 99 57 382 238 420 269 5 4 55 42 110 85 327 250 639 591
796 868 110 196 214 447 244 591 3 13 7 34 10 47 13 61 16 75 21 112 3 22 7
46 9 53 9 27 19 173 19 287 0 136 -11 277 -29 375 -4 19 -9 46 -11 60 -7 40
-52 203 -70 251 -8 24 -17 51 -19 59 -2 8 -11 33 -21 55 -10 22 -18 42 -19 45
-27 94 -179 360 -288 505 -496 659 -1225 968 -1827 774 -99 -33 -206 -86 -300
-150 -80 -55 -106 -76 -190 -155 l-35 -33 -1 222 c-1 228 -5 293 -29 507 -5
43 -22 156 -31 210 -4 26 -47 226 -58 275 -14 58 -71 246 -85 280 -5 11 -23
58 -41 105 -71 181 -183 384 -297 538 -95 128 -282 307 -413 394 -259 172
-508 260 -865 305 -78 10 -468 10 -570 0 -120 -12 -283 -37 -400 -62 -333 -71
-499 -129 -735 -256 -157 -85 -346 -246 -493 -419 -49 -58 -194 -274 -203
-303 -4 -12 -10 -24 -14 -27 -10 -6 -83 -162 -123 -260 -54 -135 -113 -320
-142 -440 -1 -8 -10 -42 -18 -75 -8 -33 -18 -78 -23 -100 -4 -22 -8 -44 -10
-50 -1 -5 -5 -23 -8 -40 -3 -16 -8 -41 -10 -55 -3 -14 -8 -41 -10 -60 -3 -19
-8 -46 -11 -60 -2 -13 -7 -42 -10 -65 -7 -51 -15 -113 -20 -145 -2 -14 -7 -50
-10 -80 -3 -30 -10 -95 -15 -145 -5 -49 -12 -119 -15 -155 -3 -36 -7 -85 -10
-110 -2 -25 -7 -94 -10 -155 -3 -60 -8 -135 -10 -165 -8 -114 -19 -442 -29
-845 -16 -628 -24 -909 -31 -1075 -11 -245 -16 -339 -20 -405 -3 -38 -7 -101
-10 -140 -6 -84 -16 -218 -20 -260 -1 -16 -6 -70 -10 -120 -4 -49 -9 -97 -10
-105 -2 -8 -6 -44 -10 -80 -19 -188 -60 -457 -101 -675 -14 -71 -27 -141 -30
-155 -16 -83 -92 -375 -131 -499 -25 -80 -47 -156 -50 -169 -3 -12 -9 -25 -14
-28 -5 -3 -9 -12 -9 -21 0 -17 -98 -273 -110 -286 -4 -5 -4 11 1 35 7 34 65
369 83 478 4 26 17 113 21 140 1 8 8 51 14 95 15 99 17 112 30 205 26 189 27
194 36 275 3 28 12 102 20 165 8 63 17 143 20 177 3 34 7 70 9 80 2 10 7 54
11 98 8 89 9 103 18 195 4 36 9 97 12 135 3 39 8 90 10 115 3 25 7 83 10 130
3 47 8 110 10 140 3 30 7 109 11 175 3 66 7 152 9 190 23 438 23 1115 0 1495
-20 330 -25 401 -30 425 -2 11 -7 61 -10 110 -4 50 -9 92 -10 95 -2 3 -6 41
-10 85 -4 44 -9 82 -10 85 -2 3 -7 37 -10 75 -4 39 -8 72 -10 75 -2 3 -6 28
-9 55 -4 28 -8 61 -11 75 -3 13 -7 41 -10 61 -5 35 -27 151 -39 214 -4 17 -11
53 -16 80 -6 28 -12 59 -14 70 -10 47 -29 128 -57 240 -17 66 -32 125 -33 130
-2 6 -9 30 -16 55 -7 25 -14 50 -16 55 -9 36 -69 218 -102 310 -65 182 -77
210 -84 213 -5 2 -8 9 -8 17 0 26 -145 325 -223 460 -168 290 -392 565 -607
745 -36 30 -67 57 -70 60 -12 13 -150 110 -204 144 -213 135 -502 249 -710
280 -21 4 -41 8 -45 10 -21 13 -434 40 -445 29z"/>
</g>
</svg>
