<?xml version="1.0" standalone="no"?>
<!DOCTYPE svg PUBLIC "-//W3C//DTD SVG 20010904//EN"
 "http://www.w3.org/TR/2001/REC-SVG-20010904/DTD/svg10.dtd">
<svg version="1.0" xmlns="http://www.w3.org/2000/svg"
 width="512.000000pt" height="512.000000pt" viewBox="0 0 512.000000 512.000000"
 preserveAspectRatio="xMidYMid meet">
<metadata>
Created by potrace 1.11, written by Peter Selinger 2001-2013
</metadata>
<g transform="translate(0.000000,512.000000) scale(0.100000,-0.100000)"
fill="#000000" stroke="none">
<path d="M2980 5083 c-200 -37 -354 -110 -479 -228 -58 -54 -141 -157 -141
-174 0 -6 -4 -11 -8 -11 -10 0 -73 -134 -96 -202 -20 -61 -44 -163 -51 -224
-4 -27 -8 -60 -11 -74 -12 -68 -2 -398 13 -422 2 -5 2 -8 0 -8 -2 0 -34 53
-71 118 -132 232 -291 423 -456 546 -172 129 -392 207 -583 207 -401 0 -773
-274 -939 -690 -42 -106 -93 -272 -104 -341 -3 -14 -7 -31 -10 -39 -2 -8 -7
-30 -10 -50 -3 -20 -9 -58 -14 -86 -11 -66 -11 -56 -14 -249 -3 -179 9 -273
54 -407 49 -145 146 -277 264 -359 46 -31 166 -90 185 -90 6 0 30 -6 53 -14
24 -8 70 -18 103 -23 75 -10 290 -10 370 1 33 4 71 9 85 11 45 6 184 36 238
52 30 8 56 13 59 10 3 -3 -12 -17 -34 -30 -153 -97 -373 -301 -480 -445 -84
-113 -167 -283 -199 -407 -36 -142 -38 -316 -3 -450 14 -55 45 -138 70 -188
66 -132 213 -300 334 -382 33 -22 66 -46 73 -52 7 -7 17 -13 22 -13 5 0 15 -6
23 -14 31 -31 247 -127 342 -152 82 -22 124 -27 230 -28 182 -1 291 31 445
133 53 34 210 184 210 200 0 4 9 19 21 32 63 72 171 304 205 439 2 8 11 42 19
75 8 33 18 76 21 95 3 19 7 42 9 50 34 122 50 547 31 815 -8 108 -9 107 40 38
11 -14 30 -40 44 -57 48 -59 203 -274 235 -328 6 -9 33 -54 61 -100 77 -123
214 -382 214 -402 0 -3 11 -29 24 -58 48 -106 122 -340 141 -447 2 -14 9 -48
14 -76 5 -27 9 -57 9 -65 0 -8 3 -37 7 -65 4 -27 8 -117 9 -200 1 -88 6 -158
13 -170 21 -39 52 -58 92 -58 72 0 150 80 188 192 19 57 22 82 19 181 -4 130
-9 162 -37 275 -21 82 -80 267 -103 320 -8 17 -31 71 -52 120 -21 50 -73 159
-116 243 -75 149 -77 153 -45 131 17 -12 41 -30 52 -40 34 -29 208 -118 286
-145 464 -162 902 34 1145 513 29 58 59 121 65 142 48 161 54 207 53 371 -1
84 -7 136 -23 194 -125 455 -552 735 -1129 739 -67 0 -119 3 -115 7 5 4 40 28
78 55 157 110 279 260 343 425 72 183 63 438 -21 635 -100 234 -287 434 -527
563 -80 43 -259 108 -325 117 -22 4 -53 10 -70 14 -32 9 -304 12 -345 4z"/>
</g>
</svg>
